<?xml version="1.0" encoding="UTF-8" standalone="no"?>
<!-- Created with Inkscape (http://www.inkscape.org/) -->

<svg
   width="210mm"
   height="297mm"
   viewBox="0 0 210 297"
   version="1.1"
   id="svg4554"
   inkscape:version="1.1.2 (0a00cf5339, 2022-02-04)"
   sodipodi:docname="medidas.svg"
   xmlns:inkscape="http://www.inkscape.org/namespaces/inkscape"
   xmlns:sodipodi="http://sodipodi.sourceforge.net/DTD/sodipodi-0.dtd"
   xmlns="http://www.w3.org/2000/svg"
   xmlns:svg="http://www.w3.org/2000/svg">
  <sodipodi:namedview
     id="namedview4556"
     pagecolor="#ffffff"
     bordercolor="#666666"
     borderopacity="1.0"
     inkscape:pageshadow="2"
     inkscape:pageopacity="0.0"
     inkscape:pagecheckerboard="0"
     inkscape:document-units="mm"
     showgrid="false"
     inkscape:zoom="0.69664703"
     inkscape:cx="396.18342"
     inkscape:cy="560.54212"
     inkscape:window-width="1862"
     inkscape:window-height="1016"
     inkscape:window-x="0"
     inkscape:window-y="0"
     inkscape:window-maximized="1"
     inkscape:current-layer="layer1" />
  <defs
     id="defs4551" />
  <g
     inkscape:label="Capa 1"
     inkscape:groupmode="layer"
     id="layer1">
    <path
       id="path4123-7"
       style="fill:#00ffff;stroke-width:0.264583"
       inkscape:transform-center-x="1.8155681"
       inkscape:transform-center-y="-1.4556165"
       d="m 29.515997,102.75847 a 29.92947,29.92947 0 0 0 -28.4251381,23.55412 29.92947,29.92947 0 0 0 22.8812901,35.60919 29.92947,29.92947 0 0 0 6.198588,0.64027 v 0.15968 H 178.28315 a 29.92947,29.92947 0 0 0 1.90634,0.11524 29.92947,29.92947 0 0 0 29.92944,-29.92944 29.92947,29.92947 0 0 0 -29.92944,-29.92944 v -0.11575 H 32.658957 a 29.92947,29.92947 0 0 0 -3.14296,-0.10387 z m 0.65474,20.19515 a 9.9538649,9.9538649 0 0 1 9.953915,9.95391 9.9538649,9.9538649 0 0 1 -9.953915,9.95392 9.9538649,9.9538649 0 0 1 -9.953914,-9.95392 9.9538649,9.9538649 0 0 1 9.953914,-9.95391 z m 150.235283,0.0863 a 9.9538649,9.9538649 0 0 1 9.95391,9.9534 9.9538649,9.9538649 0 0 1 -9.95391,9.95391 9.9538649,9.9538649 0 0 1 -9.95392,-9.95391 9.9538649,9.9538649 0 0 1 9.95392,-9.9534 z" />
  </g>
</svg>
