<?xml version="1.0" encoding="UTF-8" standalone="no"?>
<!-- Created with Inkscape (http://www.inkscape.org/) -->

<svg
   width="841mm"
   height="1189mm"
   viewBox="0 0 841 1189"
   version="1.1"
   id="svg4554"
   inkscape:version="1.1.2 (0a00cf5339, 2022-02-04)"
   sodipodi:docname="cadena.svg"
   xmlns:inkscape="http://www.inkscape.org/namespaces/inkscape"
   xmlns:sodipodi="http://sodipodi.sourceforge.net/DTD/sodipodi-0.dtd"
   xmlns="http://www.w3.org/2000/svg"
   xmlns:svg="http://www.w3.org/2000/svg">
  <sodipodi:namedview
     id="namedview4556"
     pagecolor="#ffffff"
     bordercolor="#666666"
     borderopacity="1.0"
     inkscape:pageshadow="2"
     inkscape:pageopacity="0.0"
     inkscape:pagecheckerboard="0"
     inkscape:document-units="mm"
     showgrid="false"
     inkscape:zoom="0.34832352"
     inkscape:cx="1927.8055"
     inkscape:cy="1066.5372"
     inkscape:window-width="1704"
     inkscape:window-height="820"
     inkscape:window-x="58"
     inkscape:window-y="27"
     inkscape:window-maximized="1"
     inkscape:current-layer="layer1" />
  <defs
     id="defs4551" />
  <g
     inkscape:label="Capa 1"
     inkscape:groupmode="layer"
     id="layer1">
    <path
       id="path4123-7"
       style="fill:#00ffff;stroke-width:0.264583"
       inkscape:transform-center-x="1.8155681"
       inkscape:transform-center-y="-1.4556165"
       d="m 280.3472,242.13898 a 29.92947,29.92947 0 0 0 -28.42513,23.55412 29.92947,29.92947 0 0 0 22.88129,35.60919 29.92947,29.92947 0 0 0 6.19858,0.64027 v 0.15968 h 148.11242 a 29.92947,29.92947 0 0 0 1.90634,0.11524 29.92947,29.92947 0 0 0 29.92944,-29.92944 29.92947,29.92947 0 0 0 -29.92944,-29.92944 v -0.11575 H 283.49016 a 29.92947,29.92947 0 0 0 -3.14296,-0.10387 z m 0.65474,20.19515 a 9.9538649,9.9538649 0 0 1 9.95392,9.95391 9.9538649,9.9538649 0 0 1 -9.95392,9.95392 9.9538649,9.9538649 0 0 1 -9.95391,-9.95392 9.9538649,9.9538649 0 0 1 9.95391,-9.95391 z m 150.23529,0.0863 a 9.9538649,9.9538649 0 0 1 9.95391,9.9534 9.9538649,9.9538649 0 0 1 -9.95391,9.95391 9.9538649,9.9538649 0 0 1 -9.95392,-9.95391 9.9538649,9.9538649 0 0 1 9.95392,-9.9534 z" />
    <path
       id="path4123-7-3"
       style="fill:#ff00ff;stroke-width:0.264583"
       inkscape:transform-center-x="0.17746045"
       inkscape:transform-center-y="-2.3219976"
       d="m 452.70643,251.31041 a 29.92947,29.92947 0 0 0 -36.62402,-4.63306 29.92947,29.92947 0 0 0 -10.33494,41.04579 29.92947,29.92947 0 0 0 3.77162,4.96057 l -0.11651,0.10919 101.28395,108.06873 a 29.92947,29.92947 0 0 0 1.21953,1.46975 29.92947,29.92947 0 0 0 42.30441,1.37102 29.92947,29.92947 0 0 0 1.37102,-42.30441 l 0.0845,-0.0792 L 454.7799,253.67467 a 29.92947,29.92947 0 0 0 -2.07347,-2.36426 z m -14.28745,14.2878 a 9.9538649,9.9538649 0 0 1 -0.45597,14.06958 9.9538649,9.9538649 0 0 1 -14.06958,-0.45597 9.9538649,9.9538649 0 0 1 0.45598,-14.06958 9.9538649,9.9538649 0 0 1 14.06957,0.45597 z m 102.67267,109.67668 a 9.9538649,9.9538649 0 0 1 -0.4556,14.06922 9.9538649,9.9538649 0 0 1 -14.06957,-0.45597 9.9538649,9.9538649 0 0 1 0.45597,-14.06958 9.9538649,9.9538649 0 0 1 14.0692,0.45633 z" />
    <path
       id="path4123-7-3-5"
       style="fill:#d40000;stroke-width:0.264583"
       inkscape:transform-center-x="-2.2516525"
       inkscape:transform-center-y="0.59433591"
       d="m 546.94567,409.30453 a 29.92947,29.92947 0 0 0 16.39477,-33.0756 29.92947,29.92947 0 0 0 -35.38143,-23.23192 29.92947,29.92947 0 0 0 -5.92355,1.93494 l -0.0649,-0.14589 -135.32098,60.2123 a 29.92947,29.92947 0 0 0 -1.78855,0.6697 29.92947,29.92947 0 0 0 -15.1774,39.51189 29.92947,29.92947 0 0 0 39.51189,15.1774 l 0.0471,0.10581 134.78932,-59.97581 a 29.92947,29.92947 0 0 0 2.91375,-1.18282 z m -8.80814,-18.18485 a 9.9538649,9.9538649 0 0 1 -13.14085,-5.04769 9.9538649,9.9538649 0 0 1 5.04769,-13.14085 9.9538649,9.9538649 0 0 1 13.14084,5.0477 9.9538649,9.9538649 0 0 1 -5.04768,13.14084 z m -137.29561,60.99646 a 9.9538649,9.9538649 0 0 1 -13.14062,-5.04722 9.9538649,9.9538649 0 0 1 5.04768,-13.14083 9.9538649,9.9538649 0 0 1 13.14085,5.04769 9.9538649,9.9538649 0 0 1 -5.04791,13.14036 z" />
    <path
       id="path4123-7-6"
       style="fill:#ffff00;stroke-width:0.264583"
       inkscape:transform-center-x="-1.8554091"
       inkscape:transform-center-y="-1.4073463"
       d="m 310.42524,278.83841 a 29.92947,29.92947 0 0 0 -15.95121,-33.29179 29.92947,29.92947 0 0 0 -40.09777,13.55495 29.92947,29.92947 0 0 0 -2.1255,5.85786 l -0.15491,-0.0387 -35.94641,143.68413 a 29.92947,29.92947 0 0 0 -0.57446,1.82138 29.92947,29.92947 0 0 0 21.77084,36.29839 29.92947,29.92947 0 0 0 36.29839,-21.77083 l 0.11229,0.0281 35.80519,-143.1197 a 29.92947,29.92947 0 0 0 0.86355,-3.02378 z m -19.75026,-4.26614 a 9.9538649,9.9538649 0 0 1 -12.07209,7.24054 9.9538649,9.9538649 0 0 1 -7.24054,-12.0721 9.9538649,9.9538649 0 0 1 12.0721,-7.24053 9.9538649,9.9538649 0 0 1 7.24053,12.07209 z m -36.54534,145.72264 a 9.9538649,9.9538649 0 0 1 -12.0716,7.24065 9.9538649,9.9538649 0 0 1 -7.24053,-12.07209 9.9538649,9.9538649 0 0 1 12.0721,-7.24054 9.9538649,9.9538649 0 0 1 7.24003,12.07198 z" />
    <text
       xml:space="preserve"
       style="font-style:normal;font-weight:normal;font-size:10.5833px;line-height:1.25;font-family:sans-serif;letter-spacing:0px;word-spacing:0px;fill:#000000;fill-opacity:1;stroke:none;stroke-width:0.264583"
       x="127.61124"
       y="297"
       id="text1874"><tspan
         sodipodi:role="line"
         style="stroke-width:0.264583"
         x="127.61124"
         y="297"
         id="tspan16799">Eslab贸n 1</tspan></text>
    <text
       xml:space="preserve"
       style="font-style:normal;font-weight:normal;font-size:10.5833px;line-height:1.25;font-family:sans-serif;letter-spacing:0px;word-spacing:0px;fill:#000000;fill-opacity:1;stroke:none;stroke-width:0.264583"
       x="325.10486"
       y="194.45523"
       id="text4246"><tspan
         sodipodi:role="line"
         id="tspan4244"
         style="stroke-width:0.264583"
         x="325.10486"
         y="194.45523">Eslab贸n2</tspan></text>
    <text
       xml:space="preserve"
       style="font-style:normal;font-weight:normal;font-size:10.5833px;line-height:1.25;font-family:sans-serif;letter-spacing:0px;word-spacing:0px;fill:#000000;fill-opacity:1;stroke:none;stroke-width:0.264583"
       x="615.26849"
       y="247.6266"
       id="text5350"><tspan
         sodipodi:role="line"
         style="stroke-width:0.264583"
         x="615.26849"
         y="247.6266"
         id="tspan5352">Eslab贸n 3</tspan></text>
    <text
       xml:space="preserve"
       style="font-style:normal;font-weight:normal;font-size:10.5833px;line-height:1.25;font-family:sans-serif;letter-spacing:0px;word-spacing:0px;fill:#000000;fill-opacity:1;stroke:none;stroke-width:0.264583"
       x="587.92328"
       y="456.51407"
       id="text10101"><tspan
         sodipodi:role="line"
         id="tspan10099"
         style="stroke-width:0.264583"
         x="587.92328"
         y="456.51407">Eslab贸n 4</tspan><tspan
         sodipodi:role="line"
         style="stroke-width:0.264583"
         x="587.92328"
         y="469.74319"
         id="tspan10851" /></text>
  </g>
</svg>
